<mxfile host="app.diagrams.net" agent="Mozilla/5.0 (Macintosh; Intel Mac OS X 10_15_7) AppleWebKit/537.36 (KHTML, like Gecko) Chrome/131.0.0.0 Safari/537.36" version="26.0.10">
  <diagram name="Page-1" id="ajU-YOVjr32LErKRBZZc">
    <mxGraphModel dx="1784" dy="1908" grid="0" gridSize="10" guides="1" tooltips="1" connect="1" arrows="1" fold="1" page="0" pageScale="1" pageWidth="850" pageHeight="1100" math="0" shadow="0">
      <root>
        <mxCell id="0" />
        <mxCell id="1" parent="0" />
        <mxCell id="9U9QXe8vwR6Vp0-iUwlZ-3" value="&lt;ul style=&quot;padding: 10px 0px 0px; margin: 10px 0px 6px 25px; text-size-adjust: auto; text-align: start; line-height: 150%;&quot;&gt;&lt;li style=&quot;color: light-dark(rgb(45, 59, 69), rgb(178, 190, 198)); font-family: &amp;quot;Lato Extended&amp;quot;, Lato, &amp;quot;Helvetica Neue&amp;quot;, Helvetica, Arial, sans-serif; font-size: 16px; font-weight: 400; text-size-adjust: auto;&quot;&gt;A&lt;span style=&quot;text-size-adjust: auto;&quot;&gt;&amp;nbsp;&lt;/span&gt;&lt;strong style=&quot;text-size-adjust: auto;&quot;&gt;document&lt;span style=&quot;text-size-adjust: auto;&quot;&gt;&amp;nbsp;&lt;/span&gt;&lt;/strong&gt;that describes:&lt;/li&gt;&lt;ul style=&quot;font-family: &amp;quot;Lato Extended&amp;quot;, Lato, &amp;quot;Helvetica Neue&amp;quot;, Helvetica, Arial, sans-serif; font-size: 16px; font-weight: 400; padding: 0px; margin: 0px 0px 0px 25px; text-size-adjust: auto;&quot;&gt;&lt;li style=&quot;text-size-adjust: auto;&quot;&gt;&lt;font style=&quot;color: light-dark(rgb(255, 15, 47), rgb(178, 190, 198));&quot;&gt;What typography the website will use, and why; the explanation must be rooted in typography theory. Choose typography from&lt;span style=&quot;text-size-adjust: auto;&quot;&gt;&amp;nbsp;&lt;/span&gt;&lt;a style=&quot;text-size-adjust: auto; outline: transparent solid 0.125rem;&quot; target=&quot;_blank&quot; href=&quot;https://fonts.google.com/&quot; class=&quot;inline_disabled external&quot;&gt;&lt;span style=&quot;text-size-adjust: auto;&quot;&gt;Google Fonts&lt;/span&gt;&lt;span style=&quot;text-size-adjust: auto;&quot; role=&quot;presentation&quot; class=&quot;external_link_icon&quot;&gt;&lt;span style=&quot;text-size-adjust: auto; border: 0px; clip: rect(0px, 0px, 0px, 0px); height: 1px; margin: -1px; overflow: hidden; padding: 0px; position: absolute; width: 1px; transform: translateZ(0px);&quot; class=&quot;screenreader-only&quot;&gt;Links to an external site.&lt;/span&gt;&lt;/span&gt;&lt;/a&gt;&lt;span style=&quot;text-size-adjust: auto;&quot;&gt;&amp;nbsp;&lt;/span&gt;and/or from this&lt;span style=&quot;text-size-adjust: auto;&quot;&gt;&amp;nbsp;&lt;/span&gt;&lt;a style=&quot;text-size-adjust: auto; outline: transparent solid 0.125rem;&quot; target=&quot;_blank&quot; href=&quot;https://blog.hubspot.com/website/web-safe-html-css-fonts&quot; class=&quot;inline_disabled external&quot;&gt;&lt;span style=&quot;text-size-adjust: auto;&quot;&gt;list of web-safe fonts&lt;/span&gt;&lt;span style=&quot;text-size-adjust: auto;&quot; role=&quot;presentation&quot; class=&quot;external_link_icon&quot;&gt;&lt;span style=&quot;text-size-adjust: auto; border: 0px; clip: rect(0px, 0px, 0px, 0px); height: 1px; margin: -1px; overflow: hidden; padding: 0px; position: absolute; width: 1px; transform: translateZ(0px);&quot; class=&quot;screenreader-only&quot;&gt;Links to an external site.&lt;/span&gt;&lt;/span&gt;&lt;/a&gt;.&amp;nbsp;&lt;/font&gt;&lt;/li&gt;&lt;li style=&quot;color: light-dark(rgb(45, 59, 69), rgb(178, 190, 198)); text-size-adjust: auto;&quot;&gt;&lt;br&gt;&lt;/li&gt;&lt;/ul&gt;&lt;li style=&quot;color: light-dark(rgb(45, 59, 69), rgb(178, 190, 198)); font-family: &amp;quot;Lato Extended&amp;quot;, Lato, &amp;quot;Helvetica Neue&amp;quot;, Helvetica, Arial, sans-serif; font-size: 16px; font-weight: 400;&quot;&gt;answer:&amp;nbsp; &amp;nbsp;I use the **Arial** font, along with **sans-serif** fonts, for several key reasons:&lt;/li&gt;&lt;li style=&quot;color: light-dark(rgb(45, 59, 69), rgb(178, 190, 198));&quot;&gt;&amp;nbsp;1. Clean and Simple Aesthetic&lt;/li&gt;&lt;li style=&quot;color: light-dark(rgb(45, 59, 69), rgb(178, 190, 198));&quot;&gt;&amp;nbsp;2. Readability&lt;/li&gt;&lt;li style=&quot;color: light-dark(rgb(45, 59, 69), rgb(178, 190, 198));&quot;&gt;&amp;nbsp;3. Cross-Platform Consistency&lt;/li&gt;&lt;li style=&quot;color: light-dark(rgb(45, 59, 69), rgb(178, 190, 198));&quot;&gt;&amp;nbsp;4. Default Font on Many Systems&lt;/li&gt;&lt;li style=&quot;color: light-dark(rgb(45, 59, 69), rgb(178, 190, 198));&quot;&gt;&amp;nbsp;5. Performance&lt;/li&gt;&lt;li style=&quot;color: light-dark(rgb(45, 59, 69), rgb(178, 190, 198));&quot;&gt;&amp;nbsp;6. Fallback Font (sans-serif)&lt;/li&gt;&lt;li style=&quot;color: light-dark(rgb(45, 59, 69), rgb(178, 190, 198));&quot;&gt;&amp;nbsp;7. Widely Accepted by Users&lt;/li&gt;&lt;li style=&quot;color: light-dark(rgb(45, 59, 69), rgb(178, 190, 198));&quot;&gt;&amp;nbsp;8. Versatility&lt;/li&gt;&lt;li style=&quot;color: light-dark(rgb(45, 59, 69), rgb(178, 190, 198));&quot;&gt;&amp;nbsp;9. Professional Appearance&amp;nbsp;&amp;nbsp;&lt;/li&gt;&lt;/ul&gt;&lt;div style=&quot;text-align: left;&quot;&gt;&lt;font face=&quot;Lato Extended, Lato, Helvetica Neue, Helvetica, Arial, sans-serif&quot; color=&quot;#2d3b45&quot;&gt;&lt;span style=&quot;font-size: 16px; font-weight: 400;&quot;&gt;&lt;br&gt;&lt;/span&gt;&lt;/font&gt;&lt;/div&gt;&lt;ul style=&quot;padding: 0px; margin: 0px 0px 6px 25px; text-size-adjust: auto; font-family: &amp;quot;Lato Extended&amp;quot;, Lato, &amp;quot;Helvetica Neue&amp;quot;, Helvetica, Arial, sans-serif; font-size: 16px; font-weight: 400;&quot;&gt;&lt;ul style=&quot;padding: 0px; margin: 0px 0px 0px 25px; text-size-adjust: auto;&quot;&gt;&lt;li style=&quot;text-align: left; text-size-adjust: auto;&quot;&gt;&lt;font style=&quot;color: rgb(255, 15, 47);&quot;&gt;What colors the website will use, and why were those colors chosen; the explanation must be based on color theory. You may use the color palette generators listed in&lt;span style=&quot;text-size-adjust: auto;&quot;&gt;&amp;nbsp;&lt;/span&gt;&lt;a style=&quot;text-size-adjust: auto; outline: transparent solid 0.125rem;&quot; data-api-returntype=&quot;Page&quot; data-api-endpoint=&quot;https://northeastern.instructure.com/api/v1/courses/208077/pages/module-3-readings-and-materials&quot; data-published=&quot;true&quot; data-course-type=&quot;wikiPages&quot; href=&quot;https://northeastern.instructure.com/courses/208077/pages/module-3-readings-and-materials&quot; title=&quot;Module 3 Readings and Materials&quot;&gt;the resource list for this module&lt;/a&gt;.&lt;/font&gt;&lt;/li&gt;&lt;li style=&quot;text-align: left; text-size-adjust: auto;&quot;&gt;&lt;font style=&quot;color: rgb(255, 15, 47);&quot;&gt;&lt;br&gt;&lt;/font&gt;&lt;/li&gt;&lt;/ul&gt;&lt;li&gt;&lt;div style=&quot;text-align: left;&quot;&gt;&lt;span style=&quot;background-color: transparent; color: light-dark(rgb(0, 0, 0), rgb(255, 255, 255));&quot;&gt;answer:Iâ€™ll be using three colors:&lt;/span&gt;&lt;/div&gt;&lt;ul style=&quot;caret-color: rgb(0, 0, 0);&quot;&gt;&lt;li style=&quot;text-align: left;&quot;&gt;&lt;strong&gt;Blue&lt;/strong&gt;&lt;span class=&quot;Apple-converted-space&quot;&gt;&amp;nbsp;&lt;/span&gt;(primary)&lt;/li&gt;&lt;li style=&quot;text-align: left;&quot;&gt;&lt;strong&gt;White&lt;/strong&gt;&lt;span class=&quot;Apple-converted-space&quot;&gt;&amp;nbsp;&lt;/span&gt;(neutral/secondary)&lt;/li&gt;&lt;li style=&quot;text-align: left;&quot;&gt;&lt;strong&gt;Yellow&lt;/strong&gt;&lt;span class=&quot;Apple-converted-space&quot;&gt;&amp;nbsp;&lt;/span&gt;(accent/secondary)&lt;/li&gt;&lt;li style=&quot;text-align: left;&quot;&gt;&lt;strong style=&quot;background-color: transparent;&quot;&gt;&lt;font style=&quot;color: light-dark(rgb(0, 102, 204), rgb(255, 255, 255));&quot;&gt;Color Theory Explanation for Blue, White, and Yellow&lt;/font&gt;&lt;/strong&gt;&lt;/li&gt;&lt;li style=&quot;text-align: left;&quot;&gt;&lt;strong style=&quot;background-color: transparent;&quot;&gt;&lt;font style=&quot;color: light-dark(rgb(0, 102, 204), rgb(255, 255, 255));&quot;&gt;A. Blue (Primary Color)&lt;/font&gt;&lt;/strong&gt;&lt;/li&gt;&lt;li style=&quot;text-align: left;&quot;&gt;&lt;strong style=&quot;background-color: transparent; color: light-dark(rgb(0, 0, 0), rgb(255, 255, 255)); text-align: center;&quot;&gt;Psychological Impact:&lt;/strong&gt;&lt;/li&gt;&lt;li style=&quot;text-align: left;&quot;&gt;Blue is often associated with&lt;span style=&quot;background-color: transparent; color: light-dark(rgb(0, 0, 0), rgb(255, 255, 255));&quot; class=&quot;Apple-converted-space&quot;&gt;&amp;nbsp;&lt;/span&gt;&lt;strong style=&quot;background-color: transparent; color: light-dark(rgb(0, 0, 0), rgb(255, 255, 255));&quot;&gt;trust, professionalism&lt;/strong&gt;&lt;span style=&quot;background-color: transparent; color: light-dark(rgb(0, 0, 0), rgb(255, 255, 255));&quot;&gt;, and&lt;/span&gt;&lt;span style=&quot;background-color: transparent; color: light-dark(rgb(0, 0, 0), rgb(255, 255, 255));&quot; class=&quot;Apple-converted-space&quot;&gt;&amp;nbsp;&lt;/span&gt;&lt;strong style=&quot;background-color: transparent; color: light-dark(rgb(0, 0, 0), rgb(255, 255, 255));&quot;&gt;stability&lt;/strong&gt;&lt;span style=&quot;background-color: transparent; color: light-dark(rgb(0, 0, 0), rgb(255, 255, 255));&quot;&gt;. It&#39;s a great choice for a library because it can evoke a feeling of&lt;/span&gt;&lt;span style=&quot;background-color: transparent; color: light-dark(rgb(0, 0, 0), rgb(255, 255, 255));&quot; class=&quot;Apple-converted-space&quot;&gt;&amp;nbsp;&lt;/span&gt;&lt;strong style=&quot;background-color: transparent; color: light-dark(rgb(0, 0, 0), rgb(255, 255, 255));&quot;&gt;intellectual authority&lt;/strong&gt;&lt;span style=&quot;background-color: transparent; color: light-dark(rgb(0, 0, 0), rgb(255, 255, 255));&quot;&gt;, which is important for any educational institution&lt;/span&gt;.&lt;/li&gt;&lt;li style=&quot;text-align: left;&quot;&gt;&lt;strong style=&quot;background-color: transparent; color: light-dark(rgb(0, 0, 0), rgb(255, 255, 255)); text-align: center;&quot;&gt;Color Theory:&lt;/strong&gt;&lt;span style=&quot;background-color: transparent; color: light-dark(rgb(0, 0, 0), rgb(255, 255, 255)); text-align: center;&quot; class=&quot;Apple-converted-space&quot;&gt;&amp;nbsp;&lt;/span&gt;&lt;span style=&quot;background-color: transparent; color: light-dark(rgb(0, 0, 0), rgb(255, 255, 255)); text-align: center;&quot;&gt;Blue is a&lt;/span&gt;&lt;span style=&quot;background-color: transparent; color: light-dark(rgb(0, 0, 0), rgb(255, 255, 255)); text-align: center;&quot; class=&quot;Apple-converted-space&quot;&gt;&amp;nbsp;&lt;/span&gt;&lt;strong style=&quot;background-color: transparent; color: light-dark(rgb(0, 0, 0), rgb(255, 255, 255)); text-align: center;&quot;&gt;cool color&lt;/strong&gt;&lt;span style=&quot;background-color: transparent; color: light-dark(rgb(0, 0, 0), rgb(255, 255, 255)); text-align: center;&quot; class=&quot;Apple-converted-space&quot;&gt;&amp;nbsp;&lt;/span&gt;&lt;span style=&quot;background-color: transparent; color: light-dark(rgb(0, 0, 0), rgb(255, 255, 255)); text-align: center;&quot;&gt;and contrasts well with&lt;/span&gt;&lt;span style=&quot;background-color: transparent; color: light-dark(rgb(0, 0, 0), rgb(255, 255, 255)); text-align: center;&quot; class=&quot;Apple-converted-space&quot;&gt;&amp;nbsp;&lt;/span&gt;&lt;strong style=&quot;background-color: transparent; color: light-dark(rgb(0, 0, 0), rgb(255, 255, 255)); text-align: center;&quot;&gt;warm&lt;/strong&gt;&lt;span style=&quot;background-color: transparent; color: light-dark(rgb(0, 0, 0), rgb(255, 255, 255)); text-align: center;&quot; class=&quot;Apple-converted-space&quot;&gt;&amp;nbsp;&lt;/span&gt;&lt;span style=&quot;background-color: transparent; color: light-dark(rgb(0, 0, 0), rgb(255, 255, 255)); text-align: center;&quot;&gt;colors like yellow. It provides a sense of clarity and helps&lt;/span&gt;&lt;span style=&quot;background-color: transparent; color: light-dark(rgb(0, 0, 0), rgb(255, 255, 255)); text-align: center;&quot; class=&quot;Apple-converted-space&quot;&gt;&amp;nbsp;&lt;/span&gt;&lt;strong style=&quot;background-color: transparent; color: light-dark(rgb(0, 0, 0), rgb(255, 255, 255)); text-align: center;&quot;&gt;focus&lt;/strong&gt;&lt;span style=&quot;background-color: transparent; color: light-dark(rgb(0, 0, 0), rgb(255, 255, 255)); text-align: center;&quot; class=&quot;Apple-converted-space&quot;&gt;&amp;nbsp;&lt;/span&gt;&lt;span style=&quot;background-color: transparent; color: light-dark(rgb(0, 0, 0), rgb(255, 255, 255)); text-align: center;&quot;&gt;attention. Blue works as a good backdrop color or base for various components of the website.&lt;/span&gt;&lt;/li&gt;&lt;li style=&quot;text-align: left;&quot;&gt;&lt;strong style=&quot;background-color: transparent; text-align: center;&quot;&gt;&lt;font style=&quot;color: light-dark(rgb(0, 102, 204), rgb(255, 255, 255));&quot;&gt;B. White (Secondary Color)&lt;/font&gt;&lt;/strong&gt;&lt;/li&gt;&lt;li style=&quot;text-align: left;&quot;&gt;&lt;strong style=&quot;background-color: transparent; color: light-dark(rgb(0, 0, 0), rgb(255, 255, 255)); text-align: center;&quot;&gt;Psychological Impact:&lt;/strong&gt;&lt;/li&gt;&lt;li style=&quot;text-align: left;&quot;&gt;White symbolizes&lt;span style=&quot;background-color: transparent; color: light-dark(rgb(0, 0, 0), rgb(255, 255, 255));&quot; class=&quot;Apple-converted-space&quot;&gt;&amp;nbsp;&lt;/span&gt;&lt;strong style=&quot;background-color: transparent; color: light-dark(rgb(0, 0, 0), rgb(255, 255, 255));&quot;&gt;clarity, purity&lt;/strong&gt;&lt;span style=&quot;background-color: transparent; color: light-dark(rgb(0, 0, 0), rgb(255, 255, 255));&quot;&gt;, and&lt;/span&gt;&lt;span style=&quot;background-color: transparent; color: light-dark(rgb(0, 0, 0), rgb(255, 255, 255));&quot; class=&quot;Apple-converted-space&quot;&gt;&amp;nbsp;&lt;/span&gt;&lt;strong style=&quot;background-color: transparent; color: light-dark(rgb(0, 0, 0), rgb(255, 255, 255));&quot;&gt;simplicity&lt;/strong&gt;&lt;span style=&quot;background-color: transparent; color: light-dark(rgb(0, 0, 0), rgb(255, 255, 255));&quot;&gt;. It provides a&lt;/span&gt;&lt;span style=&quot;background-color: transparent; color: light-dark(rgb(0, 0, 0), rgb(255, 255, 255));&quot; class=&quot;Apple-converted-space&quot;&gt;&amp;nbsp;&lt;/span&gt;&lt;strong style=&quot;background-color: transparent; color: light-dark(rgb(0, 0, 0), rgb(255, 255, 255));&quot;&gt;clean, open&lt;/strong&gt;&lt;span style=&quot;background-color: transparent; color: light-dark(rgb(0, 0, 0), rgb(255, 255, 255));&quot; class=&quot;Apple-converted-space&quot;&gt;&amp;nbsp;&lt;/span&gt;&lt;span style=&quot;background-color: transparent; color: light-dark(rgb(0, 0, 0), rgb(255, 255, 255));&quot;&gt;space and can promote a&lt;/span&gt;&lt;span style=&quot;background-color: transparent; color: light-dark(rgb(0, 0, 0), rgb(255, 255, 255));&quot; class=&quot;Apple-converted-space&quot;&gt;&amp;nbsp;&lt;/span&gt;&lt;strong style=&quot;background-color: transparent; color: light-dark(rgb(0, 0, 0), rgb(255, 255, 255));&quot;&gt;sense of organization&lt;/strong&gt;&lt;span style=&quot;background-color: transparent; color: light-dark(rgb(0, 0, 0), rgb(255, 255, 255));&quot; class=&quot;Apple-converted-space&quot;&gt;&amp;nbsp;&lt;/span&gt;&lt;span style=&quot;background-color: transparent; color: light-dark(rgb(0, 0, 0), rgb(255, 255, 255));&quot;&gt;on the website. White is perfect for backgrounds and content areas where readability is a priority&lt;/span&gt;&lt;/li&gt;&lt;li style=&quot;text-align: left;&quot;&gt;&lt;strong style=&quot;background-color: transparent; color: light-dark(rgb(0, 0, 0), rgb(255, 255, 255));&quot;&gt;Color Theory:&lt;/strong&gt;&lt;span style=&quot;background-color: transparent; color: light-dark(rgb(0, 0, 0), rgb(255, 255, 255));&quot; class=&quot;Apple-converted-space&quot;&gt;&amp;nbsp;&lt;/span&gt;&lt;span style=&quot;background-color: transparent; color: light-dark(rgb(0, 0, 0), rgb(255, 255, 255));&quot;&gt;White is a&lt;/span&gt;&lt;span style=&quot;background-color: transparent; color: light-dark(rgb(0, 0, 0), rgb(255, 255, 255));&quot; class=&quot;Apple-converted-space&quot;&gt;&amp;nbsp;&lt;/span&gt;&lt;strong style=&quot;background-color: transparent; color: light-dark(rgb(0, 0, 0), rgb(255, 255, 255));&quot;&gt;neutral color&lt;/strong&gt;&lt;span style=&quot;background-color: transparent; color: light-dark(rgb(0, 0, 0), rgb(255, 255, 255));&quot; class=&quot;Apple-converted-space&quot;&gt;&amp;nbsp;&lt;/span&gt;&lt;span style=&quot;background-color: transparent; color: light-dark(rgb(0, 0, 0), rgb(255, 255, 255));&quot;&gt;that helps balance out the strong presence of blue and yellow. It also helps highlight other colors and ensures your text stands out, especially when paired with blue or yellow.&lt;/span&gt;&lt;/li&gt;&lt;li style=&quot;text-align: left;&quot;&gt;&lt;strong style=&quot;background-color: transparent;&quot;&gt;&lt;font style=&quot;color: light-dark(rgb(0, 102, 204), rgb(255, 255, 255));&quot;&gt;C. Yellow (Accent/Secondary Color)&lt;/font&gt;&lt;/strong&gt;&lt;/li&gt;&lt;li style=&quot;text-align: left;&quot;&gt;&lt;strong style=&quot;background-color: transparent; color: light-dark(rgb(0, 0, 0), rgb(255, 255, 255));&quot;&gt;Psychological Impact:&lt;/strong&gt;&lt;/li&gt;&lt;li style=&quot;text-align: left;&quot;&gt;Yellow is associated with&lt;span style=&quot;background-color: transparent; color: light-dark(rgb(0, 0, 0), rgb(255, 255, 255));&quot; class=&quot;Apple-converted-space&quot;&gt;&amp;nbsp;&lt;/span&gt;&lt;strong style=&quot;background-color: transparent; color: light-dark(rgb(0, 0, 0), rgb(255, 255, 255));&quot;&gt;happiness&lt;/strong&gt;&lt;span style=&quot;background-color: transparent; color: light-dark(rgb(0, 0, 0), rgb(255, 255, 255));&quot;&gt;,&lt;/span&gt;&lt;span style=&quot;background-color: transparent; color: light-dark(rgb(0, 0, 0), rgb(255, 255, 255));&quot; class=&quot;Apple-converted-space&quot;&gt;&amp;nbsp;&lt;/span&gt;&lt;strong style=&quot;background-color: transparent; color: light-dark(rgb(0, 0, 0), rgb(255, 255, 255));&quot;&gt;optimism&lt;/strong&gt;&lt;span style=&quot;background-color: transparent; color: light-dark(rgb(0, 0, 0), rgb(255, 255, 255));&quot;&gt;, and&lt;/span&gt;&lt;span style=&quot;background-color: transparent; color: light-dark(rgb(0, 0, 0), rgb(255, 255, 255));&quot; class=&quot;Apple-converted-space&quot;&gt;&amp;nbsp;&lt;/span&gt;&lt;strong style=&quot;background-color: transparent; color: light-dark(rgb(0, 0, 0), rgb(255, 255, 255));&quot;&gt;creativity&lt;/strong&gt;&lt;span style=&quot;background-color: transparent; color: light-dark(rgb(0, 0, 0), rgb(255, 255, 255));&quot;&gt;. Itâ€™s an energetic color that can evoke feelings of joy and excitement. Yellow is often used to catch attention but needs to be used&lt;/span&gt;&lt;span style=&quot;background-color: transparent; color: light-dark(rgb(0, 0, 0), rgb(255, 255, 255));&quot; class=&quot;Apple-converted-space&quot;&gt;&amp;nbsp;&lt;/span&gt;&lt;strong style=&quot;background-color: transparent; color: light-dark(rgb(0, 0, 0), rgb(255, 255, 255));&quot;&gt;moderately&lt;/strong&gt;&lt;span style=&quot;background-color: transparent; color: light-dark(rgb(0, 0, 0), rgb(255, 255, 255));&quot;&gt;, as it can be overwhelming if overused.&lt;/span&gt;&lt;/li&gt;&lt;li style=&quot;text-align: left;&quot;&gt;&lt;strong style=&quot;background-color: transparent; color: light-dark(rgb(0, 0, 0), rgb(255, 255, 255));&quot;&gt;Color Theory:&lt;/strong&gt;&lt;span style=&quot;background-color: transparent; color: light-dark(rgb(0, 0, 0), rgb(255, 255, 255));&quot; class=&quot;Apple-converted-space&quot;&gt;&amp;nbsp;&lt;/span&gt;&lt;span style=&quot;background-color: transparent; color: light-dark(rgb(0, 0, 0), rgb(255, 255, 255));&quot;&gt;Yellow is a&lt;/span&gt;&lt;span style=&quot;background-color: transparent; color: light-dark(rgb(0, 0, 0), rgb(255, 255, 255));&quot; class=&quot;Apple-converted-space&quot;&gt;&amp;nbsp;&lt;/span&gt;&lt;strong style=&quot;background-color: transparent; color: light-dark(rgb(0, 0, 0), rgb(255, 255, 255));&quot;&gt;warm color&lt;/strong&gt;&lt;span style=&quot;background-color: transparent; color: light-dark(rgb(0, 0, 0), rgb(255, 255, 255));&quot; class=&quot;Apple-converted-space&quot;&gt;&amp;nbsp;&lt;/span&gt;&lt;span style=&quot;background-color: transparent; color: light-dark(rgb(0, 0, 0), rgb(255, 255, 255));&quot;&gt;that contrasts beautifully with both blue and white. It draws attention and is often used for elements you want users to notice immediately. Just ensure youâ€™re not using too much yellow, as it can be&lt;/span&gt;&lt;span style=&quot;background-color: transparent; color: light-dark(rgb(0, 0, 0), rgb(255, 255, 255));&quot; class=&quot;Apple-converted-space&quot;&gt;&amp;nbsp;&lt;/span&gt;&lt;strong style=&quot;background-color: transparent; color: light-dark(rgb(0, 0, 0), rgb(255, 255, 255));&quot;&gt;straining&lt;/strong&gt;&lt;span style=&quot;background-color: transparent; color: light-dark(rgb(0, 0, 0), rgb(255, 255, 255));&quot; class=&quot;Apple-converted-space&quot;&gt;&amp;nbsp;&lt;/span&gt;&lt;span style=&quot;background-color: transparent; color: light-dark(rgb(0, 0, 0), rgb(255, 255, 255));&quot;&gt;on the eyes when overused.&lt;/span&gt;&lt;/li&gt;&lt;/ul&gt;&lt;h3 style=&quot;caret-color: rgb(0, 0, 0);&quot;&gt;&lt;strong&gt;&lt;/strong&gt;&lt;/h3&gt;&lt;/li&gt;&lt;/ul&gt;" style="strokeWidth=1;shadow=0;dashed=0;align=center;html=1;shape=mxgraph.mockup.buttons.button;mainText=;buttonStyle=round;fontSize=17;fontStyle=1;whiteSpace=wrap;" vertex="1" parent="1">
          <mxGeometry x="-728" y="-794" width="846" height="930" as="geometry" />
        </mxCell>
      </root>
    </mxGraphModel>
  </diagram>
</mxfile>
